<?xml version="1.0" encoding="UTF-8" standalone="no"?>
<svg width="1000px" height="1000px" viewBox="0 0 1000 1000" version="1.1" xmlns="http://www.w3.org/2000/svg" xmlns:xlink="http://www.w3.org/1999/xlink">
    <title>PostHTML</title>
    <defs>
        <linearGradient x1="4.86886161%" y1="50%" x2="100%" y2="50%" id="linearGradient-1">
            <stop stop-color="#FDBF40" offset="0%"></stop>
            <stop stop-color="#FB6758" offset="100%"></stop>
        </linearGradient>
        <linearGradient x1="0%" y1="49.9999791%" x2="100%" y2="49.9999791%" id="linearGradient-2">
            <stop stop-color="#FB6B57" offset="0%"></stop>
            <stop stop-color="#FDBF44" offset="53.6033163%"></stop>
            <stop stop-color="#FFDF9D" offset="100%"></stop>
        </linearGradient>
    </defs>
    <g stroke="none" stroke-width="1" fill="none" fill-rule="evenodd">
        <g id="PostHTML-Logo" transform="translate(12.000000, 266.000000)">
            <g id="POSTHTML" transform="translate(504.377921, 561.030483) rotate(2.000000) translate(-504.377921, -561.030483) translate(54.377921, 487.530483)">
                <path d="M2.24609915,144.427424 L33.2860991,144.427424 L33.2860991,112.427424 L48.6460991,112.427424 C76.4860991,112.427424 96.8060991,98.507424 96.8060991,72.107424 C96.8060991,46.987424 78.5660991,32.427424 50.2460991,32.427424 L2.24609915,32.427424 L2.24609915,144.427424 Z M33.2860991,88.107424 L33.2860991,58.507424 L47.8460991,58.507424 C59.0460991,58.507424 65.7660991,63.627424 65.7660991,73.227424 C65.7660991,82.347424 59.0460991,88.107424 48.0060991,88.107424 L33.2860991,88.107424 Z" id="P" fill="#FDC73E" transform="translate(51.126099, 88.427424) rotate(-2.000000) translate(-51.126099, -88.427424) "></path>
                <path d="M163.786318,140.659388 C198.346318,140.659388 224.266318,114.579388 224.266318,82.4193882 C224.266318,49.9393882 198.666318,24.1793882 164.106318,24.1793882 C129.546318,24.1793882 103.626318,50.2593882 103.626318,82.4193882 C103.626318,114.899388 129.226318,140.659388 163.786318,140.659388 Z M164.106318,112.659388 C147.146318,112.659388 135.466318,98.5793882 135.466318,82.4193882 C135.466318,65.9393882 146.826318,52.1793882 163.786318,52.1793882 C180.906318,52.1793882 192.586318,66.2593882 192.586318,82.4193882 C192.586318,98.8993882 181.226318,112.659388 164.106318,112.659388 Z" id="O" fill="#FDC73E" transform="translate(163.946318, 82.419388) rotate(-2.000000) translate(-163.946318, -82.419388) "></path>
                <path d="M284.711926,136.077462 C311.911926,136.077462 329.991926,122.477462 329.991926,99.5974617 C329.991926,78.3174617 313.991926,69.9974617 288.231926,64.3974617 C272.711926,60.8774617 268.871926,58.6374617 268.871926,53.5174617 C268.871926,49.1974617 272.551926,45.9974617 280.071926,45.9974617 C289.991926,45.9974617 301.191926,49.8374617 311.431926,57.0374617 L326.951926,35.1174617 C314.791926,25.3574617 299.911926,20.2374617 280.871926,20.2374617 C253.991926,20.2374617 237.511926,35.2774617 237.511926,56.0774617 C237.511926,79.4374617 255.911926,86.1574617 279.751926,91.5974617 C294.951926,95.1174617 298.631926,97.6774617 298.631926,102.317462 C298.631926,107.437462 294.151926,110.317462 285.831926,110.317462 C272.871926,110.317462 260.551926,105.677462 249.511926,96.8774617 L232.231926,117.517462 C245.991926,129.837462 264.871926,136.077462 284.711926,136.077462 L284.711926,136.077462 Z" id="S" fill="#FDC73E" transform="translate(283.671926, 78.157462) rotate(-2.000000) translate(-283.671926, -78.157462) "></path>
                <path d="M371.368572,130.527914 L402.408572,130.527914 L402.408572,45.727914 L436.008572,45.727914 L436.008572,18.527914 L337.768572,18.527914 L337.768572,45.727914 L371.368572,45.727914 L371.368572,130.527914 Z" id="T" fill="#FDC73E" transform="translate(386.888572, 74.527914) rotate(-2.000000) translate(-386.888572, -74.527914) "></path>
                <path d="M449.859126,126.549371 L480.899126,126.549371 L480.899126,83.9893714 L520.739126,83.9893714 L520.739126,126.549371 L551.779126,126.549371 L551.779126,14.5493714 L520.739126,14.5493714 L520.739126,56.4693714 L480.899126,56.4693714 L480.899126,14.5493714 L449.859126,14.5493714 L449.859126,126.549371 Z" id="H" fill="#FA5E5A" transform="translate(500.819126, 70.549371) rotate(-2.000000) translate(-500.819126, -70.549371) "></path>
                <path d="M599.229681,122.570829 L630.269681,122.570829 L630.269681,37.7708287 L663.869681,37.7708287 L663.869681,10.5708287 L565.629681,10.5708287 L565.629681,37.7708287 L599.229681,37.7708287 L599.229681,122.570829 Z" id="T" fill="#FA5E5A" transform="translate(614.749681, 66.570829) rotate(-2.000000) translate(-614.749681, -66.570829) "></path>
                <path d="M677.155362,118.31309 L707.555362,118.31309 L707.555362,54.3130901 L736.035362,97.8330901 L736.675362,97.8330901 L765.315362,53.9930901 L765.315362,118.31309 L796.195362,118.31309 L796.195362,6.31309015 L763.395362,6.31309015 L736.675362,49.6730901 L709.955362,6.31309015 L677.155362,6.31309015 L677.155362,118.31309 Z" id="M" fill="#FA5E5A" transform="translate(736.675362, 62.313090) rotate(-2.000000) translate(-736.675362, -62.313090) "></path>
                <path d="M812.546708,114.153766 L897.826708,114.153766 L897.826708,86.9537663 L843.586708,86.9537663 L843.586708,2.1537663 L812.546708,2.1537663 L812.546708,114.153766 Z" id="L" fill="#FA5E5A" transform="translate(855.186708, 58.153766) rotate(-2.000000) translate(-855.186708, -58.153766) "></path>
            </g>
            <path d="M488.983779,63.7950354 C421.839997,63.7950354 368.146036,49.5962525 310.973881,24.1517767 C279.921237,10.3317931 240.253685,1 206,1 C92.2293415,1 0,93.2293415 0,207 C0,320.770658 92.2293415,413 206,413 C240.193907,413 282.441965,404.66883 310.825057,389.925605 C363.273469,362.681967 421.781731,350.21608 488.983779,350.21608 C556.240911,350.21608 606.036563,364.462843 663.283169,389.988298 C694.166242,403.758626 737.842025,413 771.987433,413 C885.758092,413 977.987433,320.770658 977.987433,207 C977.987433,93.2293415 885.758092,1 771.987433,1 C737.781264,1 691.52234,9.33714665 663.131842,24.0902587 C610.700812,51.3360245 556.181654,63.7950354 488.983779,63.7950354 Z" id="Oval-1-Copy-4" fill="url(#linearGradient-1)"></path>
            <path d="M979,207 C979,93.1115482 886.675168,0.786716356 772.786716,0.786716356 C738.545132,0.786716356 713,0.786716356 663.818421,23.9008817 C614.636842,47.0150471 323.096621,268.630783 232.659983,299.770615 C142.223344,330.910447 46.8041829,291.95442 19.5353206,212.759893 C6.75300881,175.637364 11.2141482,136.262815 28.8763461,101.697041 C10.5345691,132.519306 0,168.529413 0,207 C0,320.888452 92.3248319,413.213284 206.213284,413.213284 C240.442593,413.213284 272.5,413.213291 311.146872,390.114998 C349.793745,367.016706 654.016047,145.297742 744.452685,114.15791 C834.889324,83.0180786 930.308485,121.974106 957.577347,201.168632 C973.978437,248.800857 961.990481,300.140733 930.152895,340.272569 C960.622997,304.329827 979,257.811003 979,207 Z" id="Oval-1-Copy-5" fill="url(#linearGradient-2)"></path>
        </g>
    </g>
</svg>
